<svg version="1" xmlns="http://www.w3.org/2000/svg" width="533.333" height="533.333" viewBox="0 0 400.000000 400.000000"><path d="M45.9 1.2c0 .7-.1 90.5-.2 199.5-.1 131.5.1 198.4.8 198.6.6.2 7.1.3 14.5.3l13.5-.1.1-184.8c.1-101.6.4-185 .6-185.3.3-.2 44.1-.3 97.4-.2l96.9.3-19 3.3c-10.4 1.9-20.3 3.6-22 3.8-1.6.3-5 .9-7.5 1.4-2.5.5-9.9 1.9-16.5 3s-13.1 2.2-14.5 2.5c-1.4.3-5.2 1-8.5 1.5s-7.1 1.2-8.5 1.5c-2.6.5-6.3 1.1-11.4 2-1.6.2-3.1.7-3.5 1-.3.4-.6 70.6-.6 156v155.4l7.5 2c4.1 1 11.6 2.9 16.5 4.1 5 1.1 10.4 2.5 12 3 1.7.4 10 2.5 18.5 4.5s17.8 4.3 20.5 5c5.5 1.5 20.8 5.3 24 6 1.1.2 14.6 3.5 30 7.4 15.4 3.8 28.2 6.8 28.4 6.6.2-.2.3-13 .3-28.5v-28h4.9c4.4 0 4.9.2 5 2.2V400.1l14.6-.3 14.6-.3-.1-198.5c0-109.2-.1-199.1-.1-199.8C354 .3 322.5 0 200 0S46 .3 45.9 1.2zm279.2 30.5c.1 4 .1 27.3 0 30.5-.1 2.7-.3 2.8-5 2.8h-5l.1-17.3c0-9.4.2-17.5.5-18 .2-.4 2.4-.7 4.9-.7 4.1 0 4.4.2 4.5 2.7zm-.5 79.6c.5.5.9 153 .5 182.5l-.1 4.2-4.9-.1-4.9-.2v-93.1c0-60.4.4-93.3 1-93.7 1.2-.8 7.5-.5 8.4.4zm-133 85.1c2.1 2.1 3.5 4.5 3.6 6.2.1 1.6.2 3.8.3 4.9.4 5.8-5.2 12.5-10.5 12.5-3.7 0-8.7-5-9.6-9.5-2.5-13.3 8-22.3 16.2-14.1z"/></svg>